<svg width="560" height="150" viewBox="0 0 560 150" fill="none" xmlns="http://www.w3.org/2000/svg" role="img" aria-label="La loi avec moi — Le droit accessible pour tous">
  <defs>
    <linearGradient id="llamGrad2" x1="0" y1="0" x2="0" y2="1">
      <stop offset="0%" stop-color="#6366f1"/>
      <stop offset="100%" stop-color="#4338ca"/>
    </linearGradient>
  </defs>

  <!-- ICÔNE -->
  <g transform="translate(20,27)">
    <rect x="0" y="0" width="96" height="96" rx="22" fill="url(#llamGrad2)"/>
    <rect x="0" y="0" width="96" height="96" rx="22" fill="none" stroke="rgba(255,255,255,0.25)" stroke-width="1.5"/>
    <path d="M42 25 h12 a4 4 0 0 1 4 4 v4 a4 4 0 0 1 -4 4 h-4 l-4 4 v-4 h-4 a4 4 0 0 1 -4 -4 v-4 a4 4 0 0 1 4 -4 Z" fill="#ffffff"/>
    <rect x="46.3" y="39" width="3.4" height="32" rx="1.7" fill="#ffffff"/>
    <rect x="22" y="44.5" width="52" height="3.2" rx="1.6" fill="#ffffff"/>
    <path d="M28 46l-6 12M28 46l6 12" stroke="rgba(255,255,255,0.85)" stroke-width="1.6" stroke-linecap="round"/>
    <path d="M68 46l-6 12M68 46l6 12" stroke="rgba(255,255,255,0.85)" stroke-width="1.6" stroke-linecap="round"/>
    <path d="M19 58a9 9 0 0 0 18 0Z" fill="#ffffff"/>
    <path d="M59 58a9 9 0 0 0 18 0Z" fill="#ffffff"/>
    <rect x="37" y="71" width="22" height="3.2" rx="1.6" fill="#ffffff"/>
    <rect x="32" y="74.5" width="32" height="3.6" rx="1.8" fill="#ffffff"/>
  </g>

  <!-- TEXTE -->
  <text x="138" y="72" font-family="Georgia, 'Times New Roman', serif" font-size="36" font-weight="700" fill="#312e81">La loi avec moi</text>
  <text x="139" y="100" font-family="Arial, Helvetica, sans-serif" font-size="16.5" font-weight="600" letter-spacing="0.5" fill="#6366f1">Le droit accessible pour tous</text>
</svg>
