<svg width="96" height="96" viewBox="0 0 96 96" fill="none" xmlns="http://www.w3.org/2000/svg" role="img" aria-label="La loi avec moi">
  <defs>
    <linearGradient id="llamGrad" x1="0" y1="0" x2="0" y2="1">
      <stop offset="0%" stop-color="#6366f1"/>
      <stop offset="100%" stop-color="#4338ca"/>
    </linearGradient>
  </defs>

  <!-- Badge -->
  <rect x="3" y="3" width="90" height="90" rx="22" fill="url(#llamGrad)"/>
  <rect x="3" y="3" width="90" height="90" rx="22" fill="none" stroke="rgba(255,255,255,0.25)" stroke-width="1.5"/>

  <!-- Cœur (pivot) = le droit, mais humain -->
  <path d="M48 26c-2.2-3.6-7.2-3.4-9 .2-1.1 2.2-.4 4.7 1.6 6.6L48 39l7.4-6.2c2-1.9 2.7-4.4 1.6-6.6-1.8-3.6-6.8-3.8-9-.2Z" fill="#ffffff"/>

  <!-- Mât central -->
  <rect x="46.3" y="39" width="3.4" height="32" rx="1.7" fill="#ffffff"/>

  <!-- Fléau (barre horizontale) -->
  <rect x="22" y="44.5" width="52" height="3.2" rx="1.6" fill="#ffffff"/>

  <!-- Chaînes -->
  <path d="M28 46l-6 12M28 46l6 12" stroke="rgba(255,255,255,0.85)" stroke-width="1.6" stroke-linecap="round"/>
  <path d="M68 46l-6 12M68 46l6 12" stroke="rgba(255,255,255,0.85)" stroke-width="1.6" stroke-linecap="round"/>

  <!-- Plateaux -->
  <path d="M19 58a9 9 0 0 0 18 0Z" fill="#ffffff"/>
  <path d="M59 58a9 9 0 0 0 18 0Z" fill="#ffffff"/>

  <!-- Socle -->
  <rect x="37" y="71" width="22" height="3.2" rx="1.6" fill="#ffffff"/>
  <rect x="32" y="74.5" width="32" height="3.6" rx="1.8" fill="#ffffff"/>
</svg>
