<svg width="560" height="150" viewBox="0 0 560 150" fill="none" xmlns="http://www.w3.org/2000/svg" role="img" aria-label="La loi avec moi — Belgique">
  <defs>
    <linearGradient id="llamBE" x1="0" y1="0" x2="0" y2="1">
      <stop offset="0%" stop-color="#1e3a8a"/>
      <stop offset="100%" stop-color="#172554"/>
    </linearGradient>
  </defs>

  <!-- ICÔNE (logo maître, intact) -->
  <g transform="translate(20,27)">
    <rect x="0" y="0" width="96" height="96" rx="22" fill="url(#llamBE)"/>
    <rect x="0" y="0" width="96" height="96" rx="22" fill="none" stroke="rgba(255,255,255,0.25)" stroke-width="1.5"/>
    <path d="M42 25 h12 a4 4 0 0 1 4 4 v4 a4 4 0 0 1 -4 4 h-4 l-4 4 v-4 h-4 a4 4 0 0 1 -4 -4 v-4 a4 4 0 0 1 4 -4 Z" fill="#ffffff"/>
    <rect x="46.3" y="39" width="3.4" height="32" rx="1.7" fill="#ffffff"/>
    <rect x="22" y="44.5" width="52" height="3.2" rx="1.6" fill="#ffffff"/>
    <path d="M28 46l-6 12M28 46l6 12M68 46l-6 12M68 46l6 12" stroke="rgba(255,255,255,0.85)" stroke-width="1.6" stroke-linecap="round"/>
    <path d="M19 58a9 9 0 0 0 18 0Z" fill="#ffffff"/>
    <path d="M59 58a9 9 0 0 0 18 0Z" fill="#ffffff"/>
    <rect x="37" y="71" width="22" height="3.2" rx="1.6" fill="#ffffff"/>
    <rect x="32" y="74.5" width="32" height="3.6" rx="1.8" fill="#ffffff"/>
  </g>

  <!-- NOM -->
  <text x="138" y="68" font-family="Georgia, 'Times New Roman', serif" font-size="34" font-weight="700" fill="#172554">La loi avec moi</text>

  <!-- PUCE DRAPEAU + ÉDITION -->
  <g transform="translate(139,82)">
    <rect x="0" y="0" width="24" height="16" rx="2.5" fill="#fff" stroke="#cbd5e1" stroke-width="0.8"/>
    <rect x="2" y="2" width="6.3" height="12" fill="#2d2a26"/>
    <rect x="8.8" y="2" width="6.3" height="12" fill="#fdda24"/>
    <rect x="15.6" y="2" width="6.3" height="12" fill="#ef3340"/>
    <text x="32" y="13" font-family="Arial, Helvetica, sans-serif" font-size="14" font-weight="600" fill="#475569">Belgique</text>
    <text x="104" y="13" font-family="Arial, Helvetica, sans-serif" font-size="14" font-weight="500" fill="#94a3b8">· Le droit accessible pour tous</text>
  </g>
</svg>
